<svg role="img" viewBox="-1.2 -1.2 24 24" xmlns="http://www.w3.org/2000/svg" id="Clerk--Streamline-Simple-Icons" height="24" width="24" style="background-color: #000000ff">
  <desc>
    Clerk Streamline Icon: https://streamlinehq.com
  </desc>
  <title>Clerk</title>
  <path d="m19.323 18.746100000000002 -2.5928999999999998 -2.5928999999999998a0.5147999999999999 0.5147999999999999 0 0 0 -0.63 -0.0756 6.1686000000000005 6.1686000000000005 0 0 1 -6.3729000000000005 0 0.5184 0.5184 0 0 0 -0.63 0.0756l-2.5928999999999998 2.5928999999999998a0.5184 0.5184 0 0 0 -0.09269999999999999 0.621 0.513 0.513 0 0 0 0.1494 0.1674 10.8 10.8 0 0 0 12.7017 0 0.522 0.522 0 0 0 0.21509999999999999 -0.3807 0.5184 0.5184 0 0 0 -0.1548 -0.4077Zm0.0018000000000000002 -15.9012 -2.592 2.592a0.5121 0.5121 0 0 1 -0.6309 0.0756A6.1713000000000005 6.1713000000000005 0 0 0 7.8516 7.272a6.175800000000001 6.175800000000001 0 0 0 -1.0998 3.3228000000000004 6.174 6.174 0 0 0 0.8802 3.3876 0.5156999999999999 0.5156999999999999 0 0 1 -0.0747 0.6291l-2.5928999999999998 2.592a0.5103 0.5103 0 0 1 -0.7776 -0.0567A10.793700000000001 10.793700000000001 0 0 1 6.0939 2.43a10.791 10.791 0 0 1 13.173300000000001 -0.36450000000000005 0.5094 0.5094 0 0 1 0.2088 0.3762 0.513 0.513 0 0 1 -0.1512 0.4032Zm-6.4062 11.0349a3.0843000000000003 3.0843000000000003 0 1 0 0 -6.1686000000000005 3.0843000000000003 3.0843000000000003 0 0 0 0 6.1686000000000005Z" fill="#ffffff" stroke-width="1"></path>
</svg>