<svg role="img" viewBox="-1.2 -1.2 24 24" xmlns="http://www.w3.org/2000/svg" id="Cloudinary--Streamline-Simple-Icons" height="24" width="24" style="background-color: #000000ff">
  <desc>
    Cloudinary Streamline Icon: https://streamlinehq.com
  </desc>
  <title>Cloudinary</title>
  <path d="M21.6 13.37382c0 1.9556099999999998 -1.23813 3.5766000000000004 -3.2312700000000003 4.229640000000001l-0.08955 0.028620000000000003V16.1901c1.23993 -0.5224500000000001 1.96821 -1.55475 1.96821 -2.81619 -0.00648 -1.8 -1.44783 -3.26592 -3.24738 -3.3029100000000002h-0.53676l-0.12888 -0.51174c-0.63225 -2.60964 -2.95974 -4.45401 -5.64489 -4.473a5.75235 5.75235 0 0 0 -5.2299 3.2976l-0.16452 0.33813 -0.37575 0.039330000000000004a3.98799 3.98799 0 0 0 -2.97468 1.8792000000000002c-1.1522700000000001 1.87704 -0.5646599999999999 4.332870000000001 1.31247 5.48523v1.52073h-0.009000000000000001l-0.1341 -0.060750000000000005a5.34618 5.34618 0 0 1 -3.02922 -3.91446c-0.52083 -2.90619 1.413 -5.684489999999999 4.31919 -6.20532a7.08894 7.08894 0 0 1 6.28551 -3.7341c3.12516 0.022500000000000003 5.8815 2.052 6.83109 5.029470000000001 2.3210100000000002 0.30294000000000004 4.06242 2.27205 4.07943 4.61259zm-13.78584 -1.1898000000000002h0.50823a0.05904000000000001 0.05904000000000001 0 0 0 0.04113 -0.10017L6.3755999999999995 10.09422l-0.00063 -0.00063a0.05904000000000001 0.05904000000000001 0 0 0 -0.08343 0.00063L4.3020000000000005 12.083850000000002a0.05904000000000001 0.05904000000000001 0 0 0 0.04293 0.10017h0.50094a0.05904000000000001 0.05904000000000001 0 0 1 0.059129999999999995 0.05904000000000001v4.55166c0 0.5929200000000001 0.4806 1.07352 1.07352 1.07352H8.3223a0.05904000000000001 0.05904000000000001 0 0 0 0.04113 -0.10017l-0.29700000000000004 -0.29700000000000004a1.07352 1.07352 0 0 1 -0.3132 -0.7551v-4.473a0.06084 0.06084 0 0 1 0.06084 -0.05895zm8.7921 2.2919400000000003h0.51003a0.05895 0.05895 0 0 0 0.04113 -0.10197l-1.9896300000000002 -1.98783 -0.00135 -0.00135a0.057240000000000006 0.057240000000000006 0 0 0 -0.08091 0.00135L13.0959 14.3739a0.059129999999999995 0.059129999999999995 0 0 0 0.04113 0.10197h0.50103a0.05904000000000001 0.05904000000000001 0 0 1 0.05904000000000001 0.05904000000000001v2.25972c0 0.5929200000000001 0.4806 1.07352 1.07352 1.07352h2.34567a0.05895 0.05895 0 0 0 0.04113 -0.10017l-0.29700000000000004 -0.29700000000000004a1.07352 1.07352 0 0 1 -0.3132 -0.7551V14.534999999999998a0.05904000000000001 0.05904000000000001 0 0 1 0.059129999999999995 -0.05904000000000001zm-4.3959600000000005 -1.14687h0.50814a0.05904000000000001 0.05904000000000001 0 0 0 0.04293 -0.10026l-1.9896300000000002 -1.9824300000000001 -0.00054 -0.00054a0.05904000000000001 0.05904000000000001 0 0 0 -0.08352 0.00054l-1.98783 1.9861199999999999a0.05904000000000001 0.05904000000000001 0 0 0 0.04113 0.10017h0.50634a0.06084 0.06084 0 0 1 0.059129999999999995 0.06084v3.40119c0 0.5929200000000001 0.4806 1.07352 1.07352 1.07352h2.33847a0.05904000000000001 0.05904000000000001 0 0 0 0.04293 -0.10017l-0.2988 -0.29700000000000004a1.0737 1.0737 0 0 1 -0.3114 -0.7551v-3.3260400000000003c0 -0.032940000000000004 0.02619 -0.05985000000000001 0.059129999999999995 -0.06084z" fill="#ffffff" stroke-width="1"></path>
</svg>