<svg role="img" viewBox="-1.2 -1.2 24 24" xmlns="http://www.w3.org/2000/svg" id="Openai--Streamline-Simple-Icons" height="24" width="24" style="background-color: #000000ff">
  <desc>
    Openai Streamline Icon: https://streamlinehq.com
  </desc>
  <title>OpenAI</title>
  <path d="M20.053710000000002 8.838989999999999a5.38623 5.38623 0 0 0 -0.46413000000000004 -4.41972 5.44158 5.44158 0 0 0 -5.858820000000001 -2.61A5.45859 5.45859 0 0 0 4.4826299999999994 3.76362a5.38623 5.38623 0 0 0 -3.5979300000000003 2.61 5.44158 5.44158 0 0 0 0.6684300000000001 6.38694 5.382000000000001 5.382000000000001 0 0 0 0.45990000000000003 4.419630000000001 5.4459 5.4459 0 0 0 5.86314 2.61009A5.38623 5.38623 0 0 0 11.933910000000001 21.6a5.45013 5.45013 0 0 0 5.19462 -3.7852200000000003 5.39046 5.39046 0 0 0 3.5979300000000003 -2.61009 5.45013 5.45013 0 0 0 -0.6727500000000001 -6.36561zm-8.1198 11.347290000000001a4.027950000000001 4.027950000000001 0 0 1 -2.5887599999999997 -0.93672l0.12771 -0.07236000000000001 4.30047 -2.48238a0.71532 0.71532 0 0 0 0.35343 -0.61317v-6.063210000000001l1.818 1.0517400000000001a0.0639 0.0639 0 0 1 0.0342 0.0468v5.0243400000000005a4.053599999999999 4.053599999999999 0 0 1 -4.045050000000001 4.04496zm-8.69463 -3.71286a4.02372 4.02372 0 0 1 -0.48113999999999996 -2.71233l0.1278 0.07668 4.3047 2.48238a0.69408 0.69408 0 0 0 0.7025399999999999 0l5.258520000000001 -3.03165v2.09916a0.07236000000000001 0.07236000000000001 0 0 1 -0.02988 0.05535L8.766 17.95518a4.04928 4.04928 0 0 1 -5.52672 -1.4817600000000002zM2.10672 7.10604a4.0365 4.0365 0 0 1 2.12895 -1.7755200000000002V10.44a0.68976 0.68976 0 0 0 0.34911000000000003 0.60885l5.23296 3.0188699999999997 -1.8180899999999998 1.0516500000000002a0.06813000000000001 0.06813000000000001 0 0 1 -0.0639 0l-4.34727 -2.5078500000000004A4.053599999999999 4.053599999999999 0 0 1 2.10672 7.0848zm14.93667 3.47022L11.79342 7.5276000000000005 13.60728 6.48a0.06813000000000001 0.06813000000000001 0 0 1 0.0639 0l4.34727 2.5121700000000002a4.04496 4.04496 0 0 1 -0.60885 7.293780000000001v-5.1094800000000005a0.7110000000000001 0.7110000000000001 0 0 0 -0.36629999999999996 -0.6003000000000001zm1.80963 -2.72079 -0.1278 -0.07668 -4.296150000000001 -2.50362a0.6983100000000001 0.6983100000000001 0 0 0 -0.70686 0L8.468100000000002 8.30673V6.207660000000001a0.059579999999999994 0.059579999999999994 0 0 1 0.025560000000000003 -0.05535l4.34727 -2.50794a4.04928 4.04928 0 0 1 6.01218 4.194zM7.47585 11.5767l-1.818 -1.04742a0.07236000000000001 0.07236000000000001 0 0 1 -0.0342 -0.05103V5.46678a4.04928 4.04928 0 0 1 6.63813 -3.10833l-0.1278 0.07245L7.833600000000001 4.9131a0.71532 0.71532 0 0 0 -0.35343 0.61317zm0.9878399999999999 -2.1288600000000004 2.3418 -1.34982 2.34621 1.34982v2.69946l-2.33766 1.34973 -2.3460300000000003 -1.34973Z" fill="#ffffff" stroke-width="1"></path>
</svg>