<?xml version="1.0" encoding="iso-8859-1"?>
<!-- Uploaded to: SVG Repo, www.svgrepo.com, Generator: SVG Repo Mixer Tools -->
<svg version="1.1" id="Layer_1" xmlns="http://www.w3.org/2000/svg" xmlns:xlink="http://www.w3.org/1999/xlink" 
	 viewBox="0 0 512 512" xml:space="preserve">
<rect x="3.608" y="108.62" width="504.717" height="357.956"/>
<path style="fill:#6B6B6B;" d="M505.833,119.836v344.336H6.184V119.836H505.833 M512,113.66H0v356.72h512V113.66z"/>
<path style="fill:#DBDBDB;" d="M0,121.348V57.62c0.031-8.824,7.177-15.969,16-16h480c8.824,0.031,15.969,7.177,16,16v63.728H0z"/>
<polygon style="fill:#E21B1B;" points="471.64,103.484 171.536,103.484 200.249,59.484 471.64,59.484 "/>
<circle cx="53.899" cy="80.88" r="13.608"/>
<circle cx="89.972" cy="80.88" r="13.608"/>
<circle cx="126.055" cy="80.88" r="13.608"/>
<g>
	<path style="fill:#FFFFFF;" d="M215.648,73.196l1.912,8.328c0.408,1.952,0.8,3.952,1.176,5.944h0.072c0.368-2,0.976-4,1.504-5.912
		l2.4-8.369h3.776l2.296,8.128c0.567,2.144,1.064,4.144,1.472,6.144h0.072c0.296-2,0.728-4,1.208-6.144l2.031-8.128h4.552
		l-5.776,18.336h-4.344l-2.184-7.456c-0.574-1.929-1.039-3.89-1.392-5.872h-0.072c-0.344,1.984-0.808,3.945-1.392,5.872
		l-2.336,7.456h-4.328l-5.416-18.336L215.648,73.196z"/>
	<path style="fill:#FFFFFF;" d="M244.409,73.196l1.928,8.328c0.408,1.952,0.8,3.952,1.16,5.944h0.088c0.368-2,0.976-4,1.504-5.912
		l2.4-8.369h3.76l2.304,8.128c0.567,2.144,1.048,4.144,1.472,6.144h0.072c0.296-2,0.712-4,1.208-6.144l2.031-8.128h4.552
		l-5.76,18.336H256.8l-2.184-7.456c-0.569-1.931-1.033-3.891-1.392-5.872h-0.072c-0.341,1.984-0.803,3.945-1.384,5.872l-2.336,7.456
		h-4.344l-5.416-18.336L244.409,73.196z"/>
	<path style="fill:#FFFFFF;" d="M273.184,73.196l1.912,8.328c0.408,1.952,0.799,3.952,1.176,5.944h0.072
		c0.368-2,0.976-4,1.504-5.912l2.4-8.369h3.752l2.296,8.128c0.567,2.144,1.064,4.144,1.472,6.144h0.072c0.296-2,0.728-4,1.208-6.144
		l2.033-8.128h4.552l-5.76,18.336H285.6l-2.184-7.456c-0.574-1.929-1.039-3.89-1.392-5.872h-0.104
		c-0.344,1.984-0.808,3.945-1.392,5.872l-2.336,7.456h-4.328l-5.416-18.336L273.184,73.196z"/>
	<path style="fill:#FFFFFF;" d="M296.344,88.972c-0.084-1.558,1.111-2.888,2.668-2.972c0.06-0.003,0.12-0.004,0.18-0.004
		c1.641,0.085,2.903,1.485,2.817,3.126c-0.079,1.522-1.295,2.739-2.817,2.817c-1.551,0.024-2.828-1.212-2.852-2.763
		C296.339,89.109,296.34,89.04,296.344,88.972z"/>
</g>
<polygon style="fill:#E21B1B;" points="378.888,470.34 133.12,470.34 167.144,444.484 344.872,444.484 "/>
<g>
	<polygon style="fill:#FFFFFF;" points="440.376,94.477 437.512,91.692 447.408,81.524 436.921,71.308 439.704,68.444 
		453.056,81.444 	"/>
	<rect x="421.633" y="79.487" style="fill:#FFFFFF;" width="26.411" height="4"/>
</g>
<circle style="fill:#E21B1B;" cx="143.796" cy="280.104" r="87.925"/>
<path style="fill:#FFFFFF;" d="M173.104,320.253c-6.488,3.694-13.83,5.624-21.296,5.6c-12.135,0.339-23.745-4.953-31.448-14.336
	c-4.866-5.923-7.921-13.121-8.8-20.736h-8.872v-8.48h7.792v-2.225c0-1.672,0.145-3.488,0.28-5.016h-8.072v-8.68h9.311
	c1.42-7.842,5.025-15.124,10.4-21.008c7.621-8.555,18.61-13.336,30.064-13.08c6.87-0.052,13.665,1.421,19.896,4.312l-3.44,12.976
	c-4.825-2.466-10.166-3.752-15.584-3.752c-6.729-0.17-13.193,2.631-17.672,7.655c-3.178,3.679-5.296,8.153-6.128,12.944H166v8.624
	h-38.128c-0.237,1.613-0.331,3.243-0.28,4.872v2.4h38.4v8.48h-36.864c0.614,5.035,2.695,9.779,5.984,13.64
	c4.867,5.039,11.647,7.77,18.648,7.512c5.73-0.065,11.36-1.497,16.424-4.176L173.104,320.253z"/>
<circle style="fill:#E21B1B;" cx="368.23" cy="280.104" r="87.925"/>
<path style="fill:#FFFFFF;" d="M362.465,332.252v-12.48c-7.315-0.088-14.487-2.037-20.84-5.664l3.48-12.096
	c6.082,3.606,13.002,5.559,20.072,5.664c8.104,0,13.64-4,13.64-10.168c0-5.792-4.504-9.52-14.032-13
	c-13.504-4.88-22.256-11.064-22.256-23.023c0.239-11.54,9.209-21.009,20.72-21.872v-12.6h10.545v12
	c6.163,0.069,12.233,1.52,17.76,4.248l-3.48,11.832c-5.399-2.832-11.399-4.333-17.497-4.376c-9.008,0-12.224,4.631-12.224,9.008
	c0,5.272,4.631,8.232,15.568,12.608c14.4,5.408,20.84,12.352,20.84,23.8c-0.257,12.101-9.68,22.019-21.752,22.896v13.248
	L362.465,332.252z"/>
</svg>