<?xml version="1.0" encoding="iso-8859-1"?>
<!-- Uploaded to: SVG Repo, www.svgrepo.com, Generator: SVG Repo Mixer Tools -->
<svg version="1.1" id="Layer_1" xmlns="http://www.w3.org/2000/svg" xmlns:xlink="http://www.w3.org/1999/xlink" 
	 viewBox="0 0 512.001 512.001" xml:space="preserve">
<path style="fill:#EEA0B6;" d="M452.141,36.001c8.235-8.236,8.235-21.588,0-29.824c-8.236-8.236-21.588-8.236-29.824,0
	L280.648,147.846c5.878-40.196-4.276-80.301-28.543-112.881c-6.957-9.341-20.169-11.272-29.51-4.314
	c-9.341,6.957-11.273,20.169-4.316,29.51c17.536,23.544,24.856,52.508,20.608,81.557c-4.056,27.741,5.896,54.286,24.501,72.509
	l-227.6,227.6l70.173,70.174L333.563,284.4c25.728,4.035,52.962-3.84,72.786-23.665c32.943-32.942,48.401-48.401,48.401-48.401
	L396.471,91.671L452.141,36.001z"/>
<path style="fill:#E4769A;" d="M426.294,91.671c-8.235-8.236-21.588-8.236-29.824,0l-29.823,29.823
	c-8.236,8.236-8.236,21.588,0,29.824c8.235,8.236,21.588,8.236,29.824,0l29.823-29.823C434.53,113.259,434.53,99.907,426.294,91.671
	z"/>
<path style="fill:#DA5B82;" d="M448.165,129.448c-8.236-8.236-21.588-8.236-29.824,0l-21.87,21.87
	c-8.236,8.236-8.236,21.588,0,29.824c8.235,8.236,21.588,8.236,29.824,0l21.87-21.87C456.401,151.035,456.4,137.683,448.165,129.448
	z"/>
<path style="fill:#E4769A;" d="M470.036,167.225c-8.235-8.236-21.588-8.236-29.824,0l-13.917,13.917
	c-8.236,8.236-8.236,21.588,0,29.824c8.236,8.236,21.588,8.236,29.824,0l13.917-13.917
	C478.271,188.812,478.271,175.46,470.036,167.225z"/>
<path style="fill:#41BBBE;" d="M225.957,321.832c-10.981-10.981-10.981-28.784,0-39.764l-47.717-31.811L43.04,385.456l27.835,27.835
	l39.765,23.858l23.858,39.764l27.835,27.835L297.534,369.55l-31.811-47.717C254.741,332.812,236.938,332.812,225.957,321.832z"/>
<rect x="82.918" y="352.386" transform="matrix(-0.7071 0.7071 -0.7071 -0.7071 537.7354 572.0114)" style="fill:#20AAB0;" width="134.964" height="89.976"/>
<circle style="fill:#06484A;" cx="132.514" cy="415.277" r="8.435"/>
</svg>