<svg role="img" viewBox="-1.2 -1.2 24 24" xmlns="http://www.w3.org/2000/svg" id="Metasploit--Streamline-Simple-Icons" height="24" width="24" style="background-color: #000000">
  <desc>
    Metasploit Streamline Icon: https://streamlinehq.com
  </desc>
  <title>Metasploit</title>
  <path d="M10.2177 0h1.2312q3.7710000000000004 0.1962 7.3296 1.4544000000000001 0.1953 0.0693 0.1944 0.2781 -0.0135 3.6297000000000006 -0.0018000000000000002 10.8918 0 0.7290000000000001 -0.0837 1.0557c-0.1953 0.7605 -0.684 1.4715 -1.1934 2.0925000000000002q-0.2862 0.3492 -0.9216000000000001 0.9414 -2.6595 2.475 -5.409 4.5846 -0.1647 0.12600000000000003 -0.46440000000000003 0.30150000000000005h-0.15300000000000002q-0.5643 -0.378 -0.8504999999999999 -0.6057 -3.5928 -2.8656 -4.8978 -4.0131 -1.2132 -1.0665 -1.9521000000000002 -2.3499000000000003c-0.3321 -0.5760000000000001 -0.41940000000000005 -1.1582999999999999 -0.41850000000000004 -1.8891000000000002q0.009000000000000001 -5.4432 0.0018000000000000002 -10.9962c0 -0.1647 0.081 -0.2376 0.23490000000000003 -0.29250000000000004Q6.430499999999999 0.2043 10.216800000000001 0ZM6.7266 7.0776q0 -0.08460000000000001 0.06210000000000001 -0.0279l2.5173 2.2644a0.3366 0.3348 21.2 0 1 0.1098 0.24840000000000004l-0.0054 3.8997a0.1638 0.1638 0 0 0 0.1647 0.1656l2.2716000000000003 -0.0162a0.099 0.099 89.8 0 0 0.0972 -0.099q-0.0063 -1.9809 0.009000000000000001 -4.014900000000001 0.0018000000000000002 -0.1557 0.1314 -0.261 1.2573 -1.0305 2.6514 -2.1536999999999997 0.061200000000000004 -0.0495 0.061200000000000004 0.028800000000000003v9.792900000000001q0 0.0828 0.0567 0.0216 0.7146 -0.7785 1.4651999999999998 -1.6542000000000001 0.639 -0.747 0.8856 -1.683 0.234 -0.8901 0.2358 -1.7973000000000001 0.0063 -4.2786 0.0081 -8.791200000000002a0.12240000000000001 0.12240000000000001 0 0 0 -0.1233 -0.12240000000000001q-1.035 0.0036000000000000003 -2.1816 0c-0.2583 -0.0018000000000000002 -0.39690000000000003 -0.019799999999999998 -0.5571 0.1341Q12.744 4.7853 10.7838 6.66a0.0414 0.0414 0 0 1 -0.0558 0Q8.8038 4.8933 6.992100000000001 3.1725c-0.2106 -0.1998 -0.4635 -0.34290000000000004 -0.7587 -0.3357q-0.9810000000000001 0.0234 -2.097 0.0045000000000000005 -0.1656 -0.0036000000000000003 -0.1656 0.162 -0.0027 4.086 0.0045000000000000005 8.1288 0.0018000000000000002 0.48240000000000005 0.0324 0.9242999999999999c0.0684 0.9837 0.18000000000000002 1.9134 0.7227 2.7189 0.5166 0.7668 1.1961 1.4904 1.9134 2.1645q0.0207 0.019799999999999998 0.0486 0.0234 0.036000000000000004 0.0054 0.036000000000000004 -0.030600000000000002z" fill="#ffffff" stroke-width="1"></path>
</svg>